<?xml version="1.0" encoding="UTF-8"?>
<svg id="Layer_2" data-name="Layer 2" xmlns="http://www.w3.org/2000/svg" viewBox="0 0 550.43 506.94">
  <defs>
    <style>
      .cls-1 {
        fill: #f23540;
      }
    </style>
  </defs>
  <g id="Capa_1" data-name="Capa 1">
    <g>
      <g>
        <polygon class="cls-1" points="46.2 458.47 64.92 458.47 64.92 505.94 78.46 505.94 78.46 458.47 97.18 458.47 97.18 447.43 46.2 447.43 46.2 458.47"/>
        <path class="cls-1" d="M193.46,487.13c3.79-1.67,6.71-4.08,8.78-7.23,2.06-3.15,3.09-6.89,3.09-11.24,0-6.63-2.26-11.83-6.77-15.59-4.51-3.76-10.84-5.64-18.97-5.64h-24.99v58.5h13.54v-16.3h11.79c.21,0,.41-.02.62-.03l11.25,16.32h14.63l-13.07-18.76s.08-.03.12-.04ZM188.53,461.14c2.06,1.78,3.09,4.29,3.09,7.52s-1.03,5.67-3.09,7.48c-2.06,1.81-5.18,2.71-9.36,2.71h-11.03v-20.39h11.03c4.18,0,7.3.89,9.36,2.67Z"/>
        <rect class="cls-1" x="266.17" y="447.43" width="13.54" height="58.5"/>
        <path class="cls-1" d="M382.59,449.98c-3.79-1.7-8.3-2.55-13.54-2.55h-25.33v58.5h13.54v-16.13h11.79c5.24,0,9.75-.85,13.54-2.55,3.79-1.7,6.71-4.14,8.78-7.31,2.06-3.18,3.09-6.94,3.09-11.28s-1.03-8.19-3.09-11.37c-2.06-3.18-4.99-5.61-8.78-7.31ZM377.66,476.1c-2.06,1.78-5.18,2.67-9.36,2.67h-11.03v-20.31h11.03c4.18,0,7.3.89,9.36,2.67,2.06,1.78,3.09,4.29,3.09,7.52s-1.03,5.66-3.09,7.44Z"/>
        <path class="cls-1" d="M497.22,481.2c-1.25-2.01-2.88-3.62-4.89-4.85-2-1.23-4.22-2.2-6.64-2.93-2.42-.72-4.85-1.37-7.27-1.92-2.42-.56-4.64-1.11-6.64-1.67-2.01-.56-3.62-1.29-4.85-2.21-1.23-.92-1.84-2.13-1.84-3.64,0-1.28.36-2.41,1.09-3.38.72-.98,1.92-1.77,3.59-2.38,1.67-.61,3.82-.92,6.44-.92s5.29.38,8.02,1.13c2.73.75,5.46,1.91,8.19,3.47l4.18-10.28c-2.73-1.73-5.88-3.02-9.44-3.89-3.57-.86-7.19-1.3-10.86-1.3-5.52,0-10.1.82-13.75,2.47-3.65,1.64-6.38,3.84-8.19,6.6-1.81,2.76-2.72,5.81-2.72,9.15,0,3.12.63,5.69,1.88,7.69,1.25,2.01,2.88,3.62,4.89,4.85,2,1.23,4.22,2.23,6.64,3.01,2.42.78,4.85,1.44,7.27,1.96,2.42.53,4.64,1.09,6.64,1.67,2.01.59,3.62,1.34,4.85,2.26,1.22.92,1.84,2.16,1.84,3.72,0,1.22-.39,2.31-1.17,3.26-.78.95-1.99,1.69-3.64,2.22-1.64.53-3.8.79-6.48.79-3.51,0-6.98-.57-10.41-1.71-3.43-1.14-6.39-2.6-8.9-4.39l-4.6,10.2c2.62,2,6.07,3.64,10.36,4.89,4.29,1.25,8.78,1.88,13.46,1.88,5.57,0,10.18-.84,13.83-2.51,3.65-1.67,6.39-3.87,8.23-6.6,1.84-2.73,2.76-5.74,2.76-9.03,0-3.06-.63-5.6-1.88-7.6Z"/>
      </g>
      <path class="cls-1" d="M166.98,176.59c0,12.69-7.77,19.03-23.3,19.03-14.67,0-25.81-6.17-33.4-18.51l-16.44-27.06c-6.22-10.27-12.04-15.41-17.48-15.41-10.96,0-16.44,8.67-16.44,26.02,0,22.96-9.02,34.44-27.06,34.44-7.25,0-13.68-1.77-19.29-5.31-6.56-4.06-9.84-9.54-9.84-16.44l.52-136.84c0-13.21,2.72-22.66,8.16-28.35C17.75,2.72,27.03,0,40.23,0h56.32c21.92,0,39.74,4.58,53.47,13.72,15.97,10.79,23.95,26.54,23.95,47.25,0,10.18-1.51,18.82-4.53,25.89-2.5,6.04-7.38,13.29-14.63,21.75-4.92,5.87-7.38,11.91-7.38,18.13,0,4.92,3.26,13.48,9.77,25.7,6.51,12.21,9.77,20.26,9.77,24.14ZM61.47,64.08c0,6.56,2.2,11.61,6.6,15.15,4.49,3.71,10.05,5.57,16.7,5.57,7.85,0,14.41-1.42,19.68-4.27,6.73-3.54,10.1-8.84,10.1-15.92,0-13.21-8.67-20.07-26.02-20.59h-2.07c-16.66,0-24.99,6.69-24.99,20.07Z"/>
      <path class="cls-1" d="M440.71,12.69c5.27,5.27,11.96,15.71,20.09,31.33,12.79,24.34,22.72,36.51,29.81,36.51,3.2,0,5.66-2.98,7.39-8.93,1.04-4.06,1.56-8.33,1.56-12.82,0-22.27,1.25-36.03,3.75-41.3,4.39-9.58,11.45-14.37,21.18-14.37,11.96,0,19.71,5.57,23.24,16.7,1.81,5.7,2.71,16.4,2.71,32.11v106.03c0,25.12-9.56,37.67-28.69,37.67-12.32,0-22.87-4.4-31.66-13.2l-25.04-40.39c-10.12-16.23-17.21-24.34-21.27-24.34-6.75,0-10.12,7.6-10.12,22.78,0,18.04-1.56,31.85-4.66,41.43-3.71,8.46-10.44,12.69-20.2,12.69-11.13,0-18.47-4.23-22.01-12.69-2.68-6.39-4.01-18.25-4.01-35.6V39.23c0-12.26,1.77-21.19,5.31-26.8,4.58-7.25,12.57-10.87,23.98-10.87s21.21,3.71,28.64,11.13Z"/>
      <g>
        <path class="cls-1" d="M121.52,233.11c21.79,13.86,32.69,37.51,32.69,70.93,0,57.45-32.19,86.18-96.57,86.18h-30.73c-10.09,0-17.25-2.77-21.49-8.32-3.62-4.85-5.43-12.48-5.43-22.87v-113.55c0-18.02,8.66-27.03,25.99-27.03,32.04,0,52.6.62,61.69,1.85,11.71,1.62,22.99,5.89,33.85,12.82ZM45.86,294.68v27.38c0,7.55,1.65,13.79,4.97,18.72,3.77,5.85,9.2,8.78,16.29,8.78,12.32,0,22.18-4.27,29.57-12.82,7.08-8.01,10.63-18.25,10.63-30.73s-2.81-22.25-8.43-31.19c-6.78-10.47-15.79-15.71-27.03-15.71s-18.56,3.23-22.18,9.7c-2.54,4.47-3.81,13.09-3.81,25.88Z"/>
        <path class="cls-1" d="M343.54,304.04c0,26.34-8.05,48.21-24.14,65.61-16.4,17.79-37.7,26.68-63.88,26.68-24.49,0-45.17-8.59-62.03-25.76-17.02-17.02-25.53-37.77-25.53-62.26,0-27.11,7.08-49.02,21.25-65.73,16.87-19.87,39.43-29.8,67.69-29.8,24.72,0,45.47,9.05,62.26,27.15,16.25,17.87,24.37,39.24,24.37,64.11ZM216.71,301.73c0,13.86,2.73,25.22,8.2,34.08,6.85,10.71,16.71,16.06,29.57,16.06s22.83-4.81,30.15-14.44c6.47-8.62,9.7-19.56,9.7-32.81s-3.23-24.68-9.7-33.62c-7.47-10.09-17.67-15.13-30.61-15.13-11.78,0-21.14,4.89-28.07,14.67-6.16,8.47-9.24,18.87-9.24,31.19Z"/>
        <path class="cls-1" d="M401.32,218.67c16.41,0,26.66,7.59,30.74,22.76l7.17,26.45c3.46,13.09,5.97,21.45,7.51,25.07,2.39,5.7,5.08,8.55,8.09,8.55,3.93,0,7.63-5.5,11.1-16.52.15-.38,4.01-14.75,11.56-43.09,4.16-15.48,14.76-23.22,31.79-23.22h13.75c10.86,0,18.41,3.39,22.65,10.16,3.16,5.39,4.74,13.83,4.74,25.3v104.66c0,21.41-7.9,32.11-23.7,32.11-11.48,0-19.04-6.62-22.65-19.87l-2.43-16.29c-1.24-8.09-3.12-12.13-5.67-12.13-1.7,0-3.43,1.81-5.2,5.43-3.93,9.47-7.86,18.87-11.79,28.19-5.55,10.09-13.6,15.13-24.16,15.13-12.79,0-21.81-6.78-27.05-20.33-7.86-20.48-13.06-30.73-15.6-30.73-3.47,0-5.97,9.78-7.52,29.34-.46,6.16-2.7,11.2-6.7,15.13-4.08,4.08-9.13,6.12-15.14,6.12-9.63,0-16.1-3.54-19.42-10.63-2.47-5.54-3.7-15.09-3.7-28.65v-98.88c0-11.32,1.81-19.6,5.43-24.83,4.24-6.16,11.71-9.24,22.42-9.24h13.76Z"/>
      </g>
      <path class="cls-1" d="M365.95,168.83l-54.1-139.95c-3.89-9.94-8.77-17.1-14.63-21.49-6.4-4.76-14.77-7.13-25.13-7.13-16.48,0-28,8.63-34.56,25.91l-50.88,135.28c-1.38,3.7-2.07,8.28-2.07,13.71,0,13.12,7.94,19.67,23.82,19.67,9.6,0,18.09-3.52,25.52-10.61,4.56-4.4,8.28-8.1,11.11-11.14,4.23-4.58,13.51-6.86,27.84-6.86h4.53c9.85.35,16.02.94,18.52,1.82,4.39,1.63,8.97,4.92,13.71,9.83,6.03,6.21,10.15,10.03,12.29,11.39,5.27,3.73,11.62,5.57,19.03,5.57,6.4,0,12.13-1.75,17.24-5.29,5.87-3.89,8.79-8.86,8.79-14.89,0-2.07-.34-4.03-1.04-5.82ZM286.06,95.83c3.84,5.23,8.81,8.11,13.99,8.11,2.83,0,5.13,2.3,5.13,5.13s-2.3,5.13-5.13,5.13c-6.66,0-12.92-2.7-18.12-7.64,1.05,2.88,2.43,5.54,4.14,7.87,3.84,5.23,8.81,8.11,13.99,8.11,2.83,0,5.13,2.3,5.13,5.13s-2.3,5.13-5.13,5.13c-7.81,0-15.09-3.71-20.74-10.43v19.48c0,2.16-2.19,3.91-4.88,3.91s-4.88-1.75-4.88-3.91v-19.48c-5.65,6.72-12.92,10.43-20.73,10.43-2.83,0-5.13-2.3-5.13-5.13s2.3-5.13,5.13-5.13c5.17,0,10.14-2.88,13.99-8.11,1.71-2.32,3.08-4.98,4.14-7.87-5.21,4.94-11.47,7.64-18.12,7.64-2.83,0-5.13-2.3-5.13-5.13s2.3-5.13,5.13-5.13c5.17,0,10.14-2.88,13.99-8.11,1.83-2.49,3.27-5.36,4.35-8.48-5.25,5.08-11.59,7.85-18.33,7.85-2.83,0-5.13-2.3-5.13-5.13s2.3-5.13,5.13-5.13c5.17,0,10.14-2.88,13.99-8.11,4.19-5.71,6.5-13.39,6.5-21.62,0-.35.04-.7.1-1.03.41-2,1.99-3.58,3.99-3.99.33-.07.68-.1,1.03-.1,1.77,0,3.33.9,4.25,2.26.55.82.88,1.81.88,2.87,0,8.24,2.31,15.92,6.5,21.62,3.84,5.23,8.81,8.11,13.99,8.11,2.83,0,5.13,2.3,5.13,5.13s-2.3,5.13-5.13,5.13c-6.75,0-13.09-2.78-18.33-7.85,1.08,3.12,2.52,6,4.35,8.48Z"/>
    </g>
  </g>
</svg>