<?xml version="1.0" encoding="UTF-8"?>
<svg fill="#1d86f9" id="Layer_2" data-name="Layer 2" xmlns="http://www.w3.org/2000/svg" viewBox="0 0 999.81 298.26">
  <g id="Capa_1" data-name="Capa 1">
    <g>
      <g>
        <polygon points="258.86 246.66 278.79 246.66 278.79 297.19 293.2 297.19 293.2 246.66 313.13 246.66 313.13 234.92 258.86 234.92 258.86 246.66"/>
        <path d="M415.61,277.17c4.03-1.78,7.15-4.34,9.34-7.69,2.19-3.35,3.29-7.34,3.29-11.96,0-7.06-2.4-12.59-7.2-16.59-4.81-4-11.54-6-20.19-6h-26.6v62.27h14.41v-17.35h12.55c.23,0,.43-.02.66-.03l11.97,17.38h15.57l-13.92-19.97s.09-.03.13-.05ZM410.37,249.51c2.19,1.9,3.29,4.57,3.29,8.01s-1.1,6.03-3.29,7.96c-2.2,1.93-5.52,2.89-9.96,2.89h-11.74v-21.71h11.74c4.45,0,7.77.95,9.96,2.85Z"/>
        <rect x="493.01" y="234.92" width="14.41" height="62.27"/>
        <path d="M616.94,237.63c-4.04-1.81-8.84-2.71-14.41-2.71h-26.96v62.27h14.41v-17.17h12.55c5.57,0,10.38-.9,14.41-2.71,4.03-1.81,7.15-4.4,9.34-7.78,2.19-3.38,3.29-7.38,3.29-12.01s-1.1-8.72-3.29-12.1c-2.19-3.38-5.31-5.97-9.34-7.78ZM611.69,265.43c-2.2,1.9-5.52,2.85-9.96,2.85h-11.74v-21.62h11.74c4.45,0,7.77.95,9.96,2.85,2.19,1.9,3.29,4.57,3.29,8.01s-1.1,6.02-3.29,7.92Z"/>
        <path d="M738.95,270.86c-1.33-2.14-3.07-3.86-5.2-5.16-2.13-1.31-4.49-2.34-7.07-3.11-2.58-.77-5.16-1.45-7.74-2.05-2.58-.59-4.94-1.18-7.07-1.78-2.14-.59-3.86-1.38-5.16-2.36-1.31-.98-1.96-2.27-1.96-3.87,0-1.36.38-2.56,1.16-3.6.77-1.04,2.05-1.88,3.83-2.54,1.78-.65,4.06-.98,6.85-.98s5.63.4,8.54,1.2c2.9.8,5.81,2.03,8.72,3.69l4.45-10.94c-2.91-1.84-6.26-3.21-10.05-4.14-3.8-.92-7.65-1.38-11.56-1.38-5.87,0-10.75.88-14.63,2.63-3.88,1.75-6.79,4.09-8.72,7.03-1.93,2.94-2.89,6.18-2.89,9.74,0,3.32.67,6.05,2,8.19,1.33,2.14,3.07,3.86,5.2,5.16,2.13,1.31,4.49,2.37,7.07,3.2,2.58.83,5.16,1.53,7.74,2.09,2.58.56,4.94,1.16,7.07,1.78,2.14.62,3.86,1.42,5.16,2.4,1.3.98,1.96,2.3,1.96,3.96,0,1.3-.42,2.46-1.25,3.47-.83,1.01-2.12,1.79-3.87,2.36-1.75.56-4.05.84-6.89.84-3.74,0-7.43-.61-11.08-1.82-3.65-1.22-6.8-2.77-9.47-4.67l-4.89,10.85c2.79,2.13,6.47,3.87,11.03,5.2,4.57,1.33,9.34,2,14.33,2,5.93,0,10.84-.89,14.72-2.67,3.88-1.78,6.81-4.12,8.76-7.03,1.96-2.9,2.93-6.11,2.93-9.61,0-3.26-.67-5.96-2-8.09Z"/>
      </g>
      <path d="M139.14,155.87c0,10.81-6.62,16.22-19.86,16.22-12.51,0-21.99-5.26-28.47-15.78l-14.01-23.06c-5.3-8.75-10.26-13.13-14.9-13.13-9.34,0-14.01,7.39-14.01,22.18,0,19.57-7.69,29.35-23.06,29.35-6.18,0-11.66-1.51-16.44-4.52-5.59-3.46-8.38-8.13-8.38-14.01L.44,36.48C.44,25.22,2.76,17.17,7.39,12.31c4.56-4.63,12.47-6.95,23.72-6.95h48c18.68,0,33.88,3.9,45.57,11.7,13.61,9.2,20.41,22.62,20.41,40.28,0,8.68-1.29,16.04-3.86,22.07-2.13,5.15-6.29,11.33-12.47,18.54-4.19,5-6.29,10.15-6.29,15.45,0,4.19,2.78,11.49,8.33,21.9,5.55,10.41,8.33,17.27,8.33,20.58ZM49.21,59.98c0,5.59,1.88,9.89,5.63,12.91,3.82,3.16,8.57,4.74,14.23,4.74,6.69,0,12.28-1.21,16.77-3.64,5.74-3.01,8.61-7.54,8.61-13.57,0-11.26-7.39-17.1-22.18-17.55h-1.77c-14.2,0-21.3,5.7-21.3,17.1Z"/>
      <path d="M363.55,16.18c4.49,4.49,10.2,13.39,17.12,26.7,10.9,20.74,19.37,31.12,25.41,31.12,2.72,0,4.82-2.54,6.3-7.61.88-3.46,1.33-7.1,1.33-10.92,0-18.98,1.06-30.71,3.19-35.2,3.74-8.16,9.76-12.25,18.05-12.25,10.2,0,16.8,4.74,19.81,14.23,1.54,4.86,2.31,13.98,2.31,27.37v90.37c0,21.41-8.15,32.11-24.45,32.11-10.5,0-19.49-3.75-26.98-11.25l-21.34-34.43c-8.62-13.83-14.67-20.74-18.13-20.74-5.75,0-8.62,6.47-8.62,19.42,0,15.38-1.33,27.14-3.97,35.31-3.16,7.21-8.9,10.81-17.21,10.81-9.49,0-15.74-3.6-18.76-10.81-2.28-5.44-3.42-15.56-3.42-30.34V38.8c0-10.45,1.51-18.06,4.53-22.84,3.9-6.18,10.72-9.27,20.44-9.27s18.08,3.16,24.41,9.49Z"/>
      <path d="M594.98,19.66c21.07,13.4,31.6,36.26,31.6,68.57,0,55.54-31.12,83.31-93.36,83.31h-29.71c-9.75,0-16.68-2.68-20.77-8.04-3.5-4.69-5.25-12.06-5.25-22.11V31.61c0-17.42,8.38-26.13,25.13-26.13,30.97,0,50.85.6,59.63,1.79,11.32,1.56,22.22,5.69,32.72,12.4ZM521.83,79.18v26.47c0,7.3,1.6,13.33,4.8,18.09,3.65,5.66,8.9,8.49,15.75,8.49,11.91,0,21.44-4.13,28.59-12.4,6.85-7.74,10.27-17.65,10.27-29.71s-2.72-21.51-8.15-30.15c-6.55-10.12-15.26-15.19-26.13-15.19s-17.94,3.13-21.44,9.38c-2.46,4.32-3.68,12.66-3.68,25.01Z"/>
      <path d="M805.69,88.22c0,25.46-7.78,46.61-23.34,63.43-15.86,17.2-36.44,25.8-61.75,25.8-23.68,0-43.67-8.3-59.97-24.9-16.45-16.45-24.68-36.52-24.68-60.19,0-26.21,6.85-47.39,20.55-63.54,16.31-19.21,38.12-28.81,65.44-28.81,23.9,0,43.96,8.75,60.19,26.24,15.71,17.27,23.56,37.93,23.56,61.98ZM683.07,85.99c0,13.4,2.64,24.38,7.93,32.94,6.63,10.35,16.15,15.52,28.59,15.52s22.07-4.65,29.15-13.96c6.25-8.34,9.38-18.91,9.38-31.72s-3.13-23.86-9.38-32.5c-7.22-9.75-17.09-14.63-29.59-14.63-11.39,0-20.44,4.73-27.14,14.18-5.96,8.19-8.93,18.24-8.93,30.15Z"/>
      <path d="M855.67,5.7c15.87,0,25.77,7.33,29.72,22l6.93,25.57c3.35,12.66,5.77,20.73,7.26,24.23,2.31,5.51,4.91,8.26,7.82,8.26,3.8,0,7.37-5.32,10.73-15.97.15-.37,3.87-14.26,11.17-41.65,4.02-14.96,14.26-22.45,30.73-22.45h13.3c10.5,0,17.8,3.28,21.9,9.83,3.05,5.21,4.58,13.37,4.58,24.46v101.18c0,20.7-7.64,31.05-22.91,31.05-11.1,0-18.4-6.4-21.9-19.21l-2.35-15.75c-1.19-7.82-3.02-11.73-5.48-11.73-1.64,0-3.31,1.75-5.03,5.25-3.8,9.16-7.6,18.24-11.4,27.25-5.36,9.76-13.15,14.63-23.35,14.63-12.37,0-21.08-6.55-26.15-19.66-7.6-19.8-12.63-29.71-15.08-29.71-3.36,0-5.77,9.46-7.27,28.37-.45,5.96-2.61,10.83-6.48,14.63-3.95,3.95-8.83,5.92-14.64,5.92-9.31,0-15.57-3.42-18.77-10.27-2.38-5.36-3.57-14.59-3.57-27.7V38.64c0-10.94,1.75-18.95,5.25-24.01,4.1-5.96,11.32-8.93,21.68-8.93h13.3Z"/>
      <path d="M303.41,149.25l-46.11-119.28c-3.31-8.45-7.47-14.57-12.47-18.32-5.45-4.04-12.59-6.06-21.42-6.06-14.04,0-23.87,7.35-29.46,22.06l-43.36,115.3c-1.18,3.16-1.77,7.06-1.77,11.71,0,11.18,6.77,16.77,20.3,16.77,8.18,0,15.42-3.02,21.75-9.06,3.88-3.75,7.06-6.9,9.47-9.47,3.61-3.9,11.51-5.86,23.73-5.86h3.86c8.39.29,13.65.82,15.79,1.55,3.75,1.39,7.65,4.2,11.69,8.39,5.14,5.3,8.65,8.53,10.47,9.71,4.49,3.16,9.9,4.75,16.22,4.75,5.45,0,10.34-1.51,14.69-4.53,5-3.31,7.49-7.53,7.49-12.69,0-1.76-.29-3.41-.88-4.96ZM235.32,87.04c3.28,4.46,7.51,6.92,11.92,6.92,2.41,0,4.37,1.96,4.37,4.37s-1.96,4.37-4.37,4.37c-5.67,0-11.01-2.3-15.45-6.51.9,2.46,2.07,4.72,3.53,6.7,3.28,4.46,7.51,6.92,11.92,6.92,2.41,0,4.37,1.96,4.37,4.37s-1.96,4.37-4.37,4.37c-6.66,0-12.86-3.16-17.67-8.89v16.6c0,1.84-1.86,3.33-4.16,3.33s-4.16-1.49-4.16-3.33v-16.6c-4.82,5.73-11.01,8.89-17.67,8.89-2.41,0-4.37-1.96-4.37-4.37s1.96-4.37,4.37-4.37c4.41,0,8.64-2.46,11.92-6.92,1.45-1.98,2.63-4.25,3.53-6.7-4.44,4.21-9.77,6.51-15.45,6.51-2.41,0-4.37-1.96-4.37-4.37s1.96-4.37,4.37-4.37c4.41,0,8.64-2.46,11.92-6.92,1.56-2.12,2.79-4.57,3.71-7.23-4.47,4.33-9.88,6.69-15.63,6.69-2.41,0-4.37-1.96-4.37-4.37s1.96-4.37,4.37-4.37c4.41,0,8.64-2.46,11.92-6.92,3.57-4.86,5.54-11.41,5.54-18.43,0-.91.28-1.75.75-2.44.79-1.16,2.12-1.93,3.62-1.93.3,0,.6.03.88.09,1.71.35,3.05,1.69,3.4,3.4.06.28.09.58.09.88,0,7.02,1.97,13.56,5.54,18.43,3.28,4.46,7.51,6.92,11.92,6.92,2.41,0,4.37,1.96,4.37,4.37s-1.96,4.37-4.37,4.37c-5.75,0-11.15-2.37-15.63-6.69.92,2.66,2.15,5.11,3.71,7.23Z"/>
    </g>
  </g>
</svg>